HIERARCHY
ROOT Hips
{
	OFFSET 0.000000 100.481300 0.000000
	CHANNELS 6 Xposition Yposition Zposition Xrotation Yrotation Zrotation 
	JOINT Spine
	{
		OFFSET -0.279200 12.230698 -2.892100
		CHANNELS 3 Xrotation Yrotation Zrotation
		JOINT Spine1
		{
			OFFSET -0.232667 10.192268 -1.242267
			CHANNELS 3 Xrotation Yrotation Zrotation
			JOINT Spine1_split
			{
				OFFSET -0.232667 10.192268 -1.242267
				CHANNELS 3 Xrotation Yrotation Zrotation
				JOINT Spine2
				{
					OFFSET -0.232667 10.192268 -1.242267
					CHANNELS 3 Xrotation Yrotation Zrotation
					JOINT Neck
					{
						OFFSET -0.418800 17.814194 8.416900
						CHANNELS 3 Xrotation Yrotation Zrotation
						JOINT Head
						{
							OFFSET 0.000000 7.031097 3.806800
							CHANNELS 3 Xrotation Yrotation Zrotation
							JOINT HeadTop_End
							{
								OFFSET 0.000000 24.646606 12.978600
								CHANNELS 3 Xrotation Yrotation Zrotation
								End Site
								{
									OFFSET 0.000000 0.000000 0.000000
								}
							}
						}
					}
					JOINT LeftShoulder
					{
						OFFSET 8.476499 7.247704 -3.868750
						CHANNELS 3 Xrotation Yrotation Zrotation
						JOINT LeftShoulder_split
						{
							OFFSET 8.476499 7.247704 -3.868750
							CHANNELS 3 Xrotation Yrotation Zrotation
							JOINT LeftArm
							{
								OFFSET 9.308998 -2.777710 0.208600
								CHANNELS 3 Xrotation Yrotation Zrotation
								JOINT LeftForeArm
								{
									OFFSET 29.972298 0.000000 0.000000
									CHANNELS 3 Xrotation Yrotation Zrotation
									JOINT LeftHand
									{
										OFFSET 26.026505 0.000000 0.000000
										CHANNELS 3 Xrotation Yrotation Zrotation
										JOINT LeftHandThumb1
										{
											OFFSET 12.240501 -7.147949 9.207150
											CHANNELS 3 Xrotation Yrotation Zrotation
											JOINT LeftHandThumb2
											{
												OFFSET 4.138618 -2.389435 2.389433
												CHANNELS 3 Xrotation Yrotation Zrotation
												JOINT LeftHandThumb3
												{
													OFFSET 2.726913 -1.574387 1.574386
													CHANNELS 3 Xrotation Yrotation Zrotation
													JOINT LeftHandThumb4
													{
														OFFSET 3.941010 -2.275345 2.275342
														CHANNELS 3 Xrotation Yrotation Zrotation
														End Site
														{
															OFFSET 0.000000 0.000000 0.000000
														}
													}
												}
											}
										}
										JOINT LeftHandIndex1
										{
											OFFSET 24.424698 -1.985611 5.953459
											CHANNELS 3 Xrotation Yrotation Zrotation
											JOINT LeftHandIndex2
											{
												OFFSET 6.426697 0.000000 0.000000
												CHANNELS 3 Xrotation Yrotation Zrotation
												JOINT LeftHandIndex3
												{
													OFFSET 5.337898 0.000000 0.000000
													CHANNELS 3 Xrotation Yrotation Zrotation
													JOINT LeftHandIndex4
													{
														OFFSET 4.409401 0.000000 0.000000
														CHANNELS 3 Xrotation Yrotation Zrotation
														End Site
														{
															OFFSET 0.000000 0.000000 0.000000
														}
													}
												}
											}
										}
										JOINT LeftHandMiddle1
										{
											OFFSET 23.810104 0.000000 0.000000
											CHANNELS 3 Xrotation Yrotation Zrotation
											JOINT LeftHandMiddle2
											{
												OFFSET 7.176498 0.000000 0.000000
												CHANNELS 3 Xrotation Yrotation Zrotation
												JOINT LeftHandMiddle3
												{
													OFFSET 6.774902 0.000000 0.000000
													CHANNELS 3 Xrotation Yrotation Zrotation
													JOINT LeftHandMiddle4
													{
														OFFSET 5.403328 0.000000 0.000000
														CHANNELS 3 Xrotation Yrotation Zrotation
														End Site
														{
															OFFSET 0.000000 0.000000 0.000000
														}
													}
												}
											}
										}
										JOINT LeftHandRing1
										{
											OFFSET 22.908401 -0.839279 -6.020567
											CHANNELS 3 Xrotation Yrotation Zrotation
											JOINT LeftHandRing2
											{
												OFFSET 6.337502 0.000000 0.000000
												CHANNELS 3 Xrotation Yrotation Zrotation
												JOINT LeftHandRing3
												{
													OFFSET 5.779297 0.000000 0.000000
													CHANNELS 3 Xrotation Yrotation Zrotation
													JOINT LeftHandRing4
													{
														OFFSET 4.965698 0.000000 0.000000
														CHANNELS 3 Xrotation Yrotation Zrotation
														End Site
														{
															OFFSET 0.000000 0.000000 0.000000
														}
													}
												}
											}
										}
										JOINT LeftHandPinky1
										{
											OFFSET 20.037003 -1.530319 -10.950146
											CHANNELS 3 Xrotation Yrotation Zrotation
											JOINT LeftHandPinky2
											{
												OFFSET 5.254700 0.000000 0.000000
												CHANNELS 3 Xrotation Yrotation Zrotation
												JOINT LeftHandPinky3
												{
													OFFSET 4.810204 0.000000 0.000000
													CHANNELS 3 Xrotation Yrotation Zrotation
													JOINT LeftHandPinky4
													{
														OFFSET 3.647202 0.000000 0.000000
														CHANNELS 3 Xrotation Yrotation Zrotation
														End Site
														{
															OFFSET 0.000000 0.000000 0.000000
														}
													}
												}
											}
										}
									}
								}
							}
						}
					}
					JOINT RightShoulder
					{
						OFFSET -7.570500 7.247704 -3.868750
						CHANNELS 3 Xrotation Yrotation Zrotation
						JOINT RightShoulder_split
						{
							OFFSET -7.570500 7.247704 -3.868750
							CHANNELS 3 Xrotation Yrotation Zrotation
							JOINT RightArm
							{
								OFFSET -9.308998 -2.777710 0.208500
								CHANNELS 3 Xrotation Yrotation Zrotation
								JOINT RightForeArm
								{
									OFFSET -29.972300 0.000000 0.000000
									CHANNELS 3 Xrotation Yrotation Zrotation
									JOINT RightHand
									{
										OFFSET -26.026505 0.000000 0.000000
										CHANNELS 3 Xrotation Yrotation Zrotation
										JOINT RightHandThumb1
										{
											OFFSET -12.240601 -7.148026 9.207092
											CHANNELS 3 Xrotation Yrotation Zrotation
											JOINT RightHandThumb2
											{
												OFFSET -4.138618 -2.389435 2.389433
												CHANNELS 3 Xrotation Yrotation Zrotation
												JOINT RightHandThumb3
												{
													OFFSET -2.726974 -1.574417 1.574421
													CHANNELS 3 Xrotation Yrotation Zrotation
													JOINT RightHandThumb4
													{
														OFFSET -3.941010 -2.275345 2.275343
														CHANNELS 3 Xrotation Yrotation Zrotation
														End Site
														{
															OFFSET 0.000000 0.000000 0.000000
														}
													}
												}
											}
										}
										JOINT RightHandIndex1
										{
											OFFSET -24.424698 -1.985657 5.953444
											CHANNELS 3 Xrotation Yrotation Zrotation
											JOINT RightHandIndex2
											{
												OFFSET -6.426697 0.000000 0.000000
												CHANNELS 3 Xrotation Yrotation Zrotation
												JOINT RightHandIndex3
												{
													OFFSET -5.337898 0.000000 0.000000
													CHANNELS 3 Xrotation Yrotation Zrotation
													JOINT RightHandIndex4
													{
														OFFSET -4.409401 0.000000 0.000000
														CHANNELS 3 Xrotation Yrotation Zrotation
														End Site
														{
															OFFSET 0.000000 0.000000 0.000000
														}
													}
												}
											}
										}
										JOINT RightHandMiddle1
										{
											OFFSET -23.810097 0.000000 0.000000
											CHANNELS 3 Xrotation Yrotation Zrotation
											JOINT RightHandMiddle2
											{
												OFFSET -7.176498 0.000000 0.000000
												CHANNELS 3 Xrotation Yrotation Zrotation
												JOINT RightHandMiddle3
												{
													OFFSET -6.774902 0.000000 0.000000
													CHANNELS 3 Xrotation Yrotation Zrotation
													JOINT RightHandMiddle4
													{
														OFFSET -5.403328 0.000000 0.000000
														CHANNELS 3 Xrotation Yrotation Zrotation
														End Site
														{
															OFFSET 0.000000 0.000000 0.000000
														}
													}
												}
											}
										}
										JOINT RightHandRing1
										{
											OFFSET -22.908302 -0.839325 -6.020576
											CHANNELS 3 Xrotation Yrotation Zrotation
											JOINT RightHandRing2
											{
												OFFSET -6.337502 0.000000 0.000000
												CHANNELS 3 Xrotation Yrotation Zrotation
												JOINT RightHandRing3
												{
													OFFSET -5.779297 0.000000 0.000000
													CHANNELS 3 Xrotation Yrotation Zrotation
													JOINT RightHandRing4
													{
														OFFSET -4.965698 0.000000 0.000000
														CHANNELS 3 Xrotation Yrotation Zrotation
														End Site
														{
															OFFSET 0.000000 0.000000 0.000000
														}
													}
												}
											}
										}
										JOINT RightHandPinky1
										{
											OFFSET -20.037003 -1.530334 -10.950259
											CHANNELS 3 Xrotation Yrotation Zrotation
											JOINT RightHandPinky2
											{
												OFFSET -5.254700 0.000000 0.000000
												CHANNELS 3 Xrotation Yrotation Zrotation
												JOINT RightHandPinky3
												{
													OFFSET -4.810204 0.000000 0.000000
													CHANNELS 3 Xrotation Yrotation Zrotation
													JOINT RightHandPinky4
													{
														OFFSET -3.647202 0.000000 0.000000
														CHANNELS 3 Xrotation Yrotation Zrotation
														End Site
														{
															OFFSET 0.000000 0.000000 0.000000
														}
													}
												}
											}
										}
									}
								}
							}
						}
					}
				}
			}
		}
	}
	JOINT LeftUpLeg
	{
		OFFSET 15.427100 -6.655098 0.678600
		CHANNELS 3 Xrotation Yrotation Zrotation
		JOINT LeftLeg
		{
			OFFSET 4.081073 -39.591068 13.024000
			CHANNELS 3 Xrotation Yrotation Zrotation
			JOINT LeftFoot
			{
				OFFSET -4.081074 -37.707932 -15.979700
				CHANNELS 3 Xrotation Yrotation Zrotation
				JOINT LeftToeBase
				{
					OFFSET 5.346399 -15.068900 20.645000
					CHANNELS 3 Xrotation Yrotation Zrotation
					JOINT LeftToe_End
					{
						OFFSET 2.754700 0.931300 11.300900
						CHANNELS 3 Xrotation Yrotation Zrotation
						End Site
						{
							OFFSET 0.000000 0.000000 0.000000
						}
					}
				}
			}
		}
	}
	JOINT RightUpLeg
	{
		OFFSET -15.569500 -6.655098 0.678600
		CHANNELS 3 Xrotation Yrotation Zrotation
		JOINT RightLeg
		{
			OFFSET -4.081825 -39.591045 13.023800
			CHANNELS 3 Xrotation Yrotation Zrotation
			JOINT RightFoot
			{
				OFFSET 4.081824 -37.707954 -15.979600
				CHANNELS 3 Xrotation Yrotation Zrotation
				JOINT RightToeBase
				{
					OFFSET -5.346400 -15.068900 20.645000
					CHANNELS 3 Xrotation Yrotation Zrotation
					JOINT RightToe_End
					{
						OFFSET -2.754700 0.931300 11.300900
						CHANNELS 3 Xrotation Yrotation Zrotation
						End Site
						{
							OFFSET 0.000000 0.000000 0.000000
						}
					}
				}
			}
		}
	}
}
MOTION
Frames: 5
Frame Time: 0.016667
68.269196 92.294250 43.410461 4.583694 68.119874 -3.660350 1.775181 16.000008 -2.924628 0.302477 12.349556 -1.690998 0.000000 0.000000 0.000000 0.319026 12.258880 -2.268430 30.683792 -16.732683 8.274239 -37.265553 -69.684397 -3.375901 0.000000 -0.000002 -0.000000 -2.027422 -8.616115 -14.640804 0.000000 0.000000 0.000000 564.659170 -127.569520 506.102155 0.000037 -67.460822 0.000048 -133.641544 -5.524206 50.251966 -10.936366 -6.746907 10.333064 -18.089394 8.879782 2.392691 2.024257 8.904797 14.660549 0.000000 -0.000001 -0.000000 5.890360 8.200079 -88.621841 6.193156 5.841105 -93.357642 1.838878 4.262282 -46.658095 -0.000001 -0.000000 0.000000 7.765548 7.904034 -107.399493 3.749171 5.461722 -68.913487 2.406847 4.732790 -53.891371 -0.000001 0.000002 0.000001 7.314737 8.035624 -105.795006 3.608014 5.405428 -67.422894 0.590214 2.564546 -25.917341 -0.000001 -0.000001 0.000001 10.390430 6.780222 -113.877149 1.172179 3.517159 -36.854007 0.365889 2.039738 -20.337144 -0.000001 -0.000001 -0.000002 -8.395406 33.279858 21.038921 0.000000 0.000000 0.000000 6.092957 31.507495 48.663445 0.000003 48.322397 0.000006 -20.121536 -43.295309 5.646365 17.912417 17.120614 -32.483526 12.694454 -52.014220 20.210849 2.934343 3.697806 -26.040889 -0.000001 0.000001 0.000001 0.276357 -8.899014 1.740167 5.888277 -4.491832 105.344207 2.534058 -4.146027 62.852801 -0.000000 -0.000000 0.000001 4.166156 -8.600796 42.153199 7.050161 -3.996512 120.947132 0.504901 -2.110857 26.901277 -0.000001 0.000000 0.000000 -0.361093 -4.549282 57.044248 4.703204 -4.656948 90.567099 2.413037 -4.081871 61.166011 -0.000000 0.000002 -0.000000 -5.324599 -0.292076 51.887301 3.524516 -4.517634 75.909254 1.722705 -3.617955 50.911943 -0.000002 -0.000000 0.000001 -26.939721 -9.795551 -0.861859 18.889534 0.954562 -7.824239 7.264871 -18.299882 6.028660 0.069469 -2.860534 -0.863376 -0.000000 -0.000003 0.000000 6.444108 -13.946527 -0.387949 31.216259 -2.353426 -2.964837 -6.566226 -14.010977 10.833651 -25.895219 -1.514232 3.727294 -0.000000 0.000003 0.000000 
67.953506 92.289330 43.282665 4.265069 66.940355 -3.391412 1.758218 15.665056 -2.786291 0.343534 12.111571 -1.597175 0.000000 0.000000 0.000000 0.355241 12.030028 -2.142363 30.067719 -16.587191 7.620743 -36.544411 -68.821833 -2.824750 0.000001 0.000001 0.000000 -1.967089 -8.442200 -14.580902 0.000000 0.000000 0.000000 563.731685 -126.918302 505.300673 0.000028 -66.037322 0.000039 -133.517030 -3.963443 49.001840 -10.936447 -6.746904 10.333403 -18.089394 8.879781 2.392691 2.035133 8.896545 14.627306 0.000000 0.000003 0.000001 5.890359 8.200075 -88.621834 6.193156 5.841086 -93.357635 1.839648 4.263011 -46.668473 -0.000001 0.000002 -0.000000 7.765551 7.904040 -107.399500 3.753023 5.463207 -68.954086 2.408262 4.733825 -53.908491 0.000000 0.000003 -0.000000 7.314738 8.035637 -105.794979 3.608012 5.405431 -67.422894 0.623895 2.632654 -26.660026 0.000001 0.000000 0.000001 10.390434 6.780227 -113.877128 1.175917 3.522157 -36.915127 0.382446 2.083818 -20.797089 -0.000002 -0.000000 -0.000001 -8.428598 32.859057 21.486421 0.000000 0.000000 0.000000 5.768029 31.090949 48.692026 0.000012 48.134406 -0.000015 -19.464972 -44.389423 4.704365 17.912419 17.120600 -32.483557 12.694445 -52.014209 20.210851 2.934342 3.697808 -26.040890 0.000002 -0.000001 -0.000002 0.276352 -8.899007 1.740154 5.888277 -4.491832 105.344207 2.534429 -4.146210 62.857924 0.000001 -0.000000 -0.000001 4.166149 -8.600800 42.153192 7.050162 -3.996513 120.947118 0.504901 -2.110859 26.901264 0.000000 0.000000 -0.000000 -0.361094 -4.549277 57.044234 4.703203 -4.656945 90.567099 2.413040 -4.081869 61.166011 -0.000001 0.000001 -0.000000 -5.324602 -0.292064 51.887287 3.524515 -4.517636 75.909254 1.722701 -3.617952 50.911936 0.000000 -0.000000 -0.000001 -26.848453 -9.719194 -0.284141 18.993870 1.635697 -7.923177 7.094576 -18.111292 5.757122 0.069551 -2.860521 -0.863371 -0.000000 0.000000 0.000000 6.761970 -12.361286 -0.866732 30.584484 -2.929272 -2.885887 -8.281986 -16.922248 10.231249 -20.124254 -1.661387 5.723799 -0.000000 -0.000000 0.000001 
67.623535 92.397522 43.149933 4.006896 65.681626 -3.275473 1.691041 15.324088 -2.580019 0.349807 11.848934 -1.478821 0.000000 0.000000 0.000000 0.356716 11.776930 -1.992125 29.489349 -16.410168 6.935821 -35.776350 -67.919818 -2.237552 -0.000000 -0.000002 -0.000000 -1.896979 -8.276100 -14.474769 0.000000 0.000000 0.000000 562.789501 -126.168388 504.520666 0.000044 -64.514367 0.000051 -133.165931 -2.289598 47.769336 -10.936571 -6.746914 10.333435 -18.089394 8.879782 2.392691 2.046073 8.888238 14.593857 -0.000000 -0.000002 -0.000001 5.890362 8.200064 -88.621814 6.193154 5.841081 -93.357642 1.839894 4.263238 -46.671806 0.000000 -0.000000 -0.000000 7.765542 7.904031 -107.399479 3.758021 5.465101 -69.006296 2.408690 4.734139 -53.913986 0.000000 0.000002 -0.000000 7.314732 8.035630 -105.794986 3.608010 5.405426 -67.422874 0.659585 2.702509 -27.426937 -0.000000 -0.000000 0.000002 10.390432 6.780224 -113.877128 1.180759 3.528569 -36.993773 0.400211 2.129983 -21.280494 -0.000001 -0.000000 0.000001 -8.483180 32.397793 22.014849 0.000000 0.000000 0.000000 5.553994 30.650358 48.597779 0.000008 48.025495 -0.000019 -19.267245 -45.436307 3.569805 17.912412 17.120610 -32.483553 12.694443 -52.014216 20.210861 2.934344 3.697810 -26.040887 0.000000 0.000004 0.000002 0.276353 -8.899011 1.740151 5.888277 -4.491832 105.344207 2.534561 -4.146279 62.859713 -0.000001 -0.000000 -0.000000 4.166147 -8.600792 42.153202 7.050160 -3.996512 120.947132 0.504907 -2.110859 26.901267 0.000001 -0.000000 -0.000000 -0.361099 -4.549274 57.044237 4.703206 -4.656946 90.567093 2.413035 -4.081867 61.166004 -0.000000 -0.000001 0.000001 -5.324599 -0.292067 51.887322 3.524514 -4.517638 75.909254 1.722699 -3.617956 50.911933 0.000001 -0.000000 -0.000001 -26.607822 -9.621456 0.455213 18.879386 2.381113 -8.015955 7.015314 -17.975764 5.469852 0.069632 -2.860508 -0.863368 -0.000000 0.000001 0.000000 7.674285 -11.412776 -0.756245 29.010477 -1.844022 -3.042209 -9.789585 -21.752537 8.902371 -13.962221 -1.355010 7.849244 -0.000001 -0.000002 0.000001 
67.318474 92.556496 43.012241 3.799206 64.496711 -3.134711 1.655266 14.940069 -2.458417 0.371863 11.541081 -1.378604 0.000000 0.000000 0.000000 0.372756 11.478283 -1.856315 28.899299 -16.213862 6.271603 -35.170697 -67.009647 -1.806529 -0.000001 0.000001 0.000000 -1.822198 -8.117084 -14.348525 0.000000 0.000000 0.000000 561.935728 -125.327851 503.893436 0.000007 -62.965082 0.000009 -132.533114 -0.580734 46.575668 -10.936744 -6.746907 10.333235 -18.089397 8.879784 2.392691 2.057072 8.879872 14.560240 -0.000001 0.000001 0.000000 5.890359 8.200072 -88.621814 6.193146 5.841082 -93.357621 1.839736 4.263103 -46.669720 0.000000 -0.000001 -0.000001 7.765543 7.904041 -107.399472 3.763883 5.467363 -69.068000 2.408420 4.733942 -53.910543 0.000000 -0.000002 0.000001 7.314739 8.035624 -105.794993 3.608014 5.405432 -67.422908 0.697105 2.773524 -28.212547 0.000002 0.000000 0.000002 10.390430 6.780228 -113.877108 1.186485 3.536152 -37.086684 0.419076 2.177762 -21.782433 0.000001 -0.000001 -0.000001 -8.552619 31.896895 22.612287 0.000000 0.000000 0.000000 5.447668 30.142516 48.410827 -0.000005 48.027623 0.000014 -19.755356 -46.276133 2.025985 17.912414 17.120602 -32.483540 12.694447 -52.014213 20.210846 2.934338 3.697805 -26.040889 -0.000002 0.000003 0.000001 0.276348 -8.899011 1.740171 5.888277 -4.491832 105.344207 2.534507 -4.146251 62.858955 -0.000001 0.000000 -0.000000 4.166155 -8.600798 42.153209 7.050161 -3.996513 120.947132 0.504904 -2.110858 26.901286 0.000000 -0.000001 0.000000 -0.361097 -4.549280 57.044241 4.703205 -4.656950 90.567093 2.413041 -4.081869 61.166031 0.000001 0.000000 -0.000001 -5.324599 -0.292073 51.887318 3.524515 -4.517632 75.909261 1.722701 -3.617952 50.911923 0.000002 -0.000002 -0.000000 -26.275591 -9.523146 1.092706 18.583543 3.173901 -8.084733 7.028036 -17.895545 5.198380 0.069718 -2.860521 -0.863363 0.000000 0.000002 0.000000 8.525546 -11.383718 -0.549724 27.211484 -0.242191 -3.378410 -11.222456 -26.725366 7.125723 -8.328454 -0.706771 9.507658 0.000000 -0.000001 0.000000 
67.068604 92.770859 42.839054 3.585810 63.419283 -2.842077 1.649761 14.536857 -2.486524 0.384028 11.204910 -1.354484 0.000000 0.000000 0.000000 0.372952 11.147828 -1.802457 28.337763 -15.959458 5.895239 -34.690223 -65.950852 -1.638409 0.000000 0.000002 0.000000 -1.753733 -7.966567 -14.248955 0.000000 0.000000 0.000000 561.259320 -124.487041 503.514442 -0.000003 -61.536173 -0.000000 -131.520251 1.050223 45.453942 -10.936927 -6.746885 10.332930 -18.089394 8.879784 2.392691 2.068134 8.871435 14.526421 -0.000000 -0.000001 -0.000001 5.890350 8.200061 -88.621807 6.193154 5.841091 -93.357628 1.839416 4.262788 -46.665314 0.000001 0.000003 -0.000002 7.765549 7.904024 -107.399486 3.770401 5.469824 -69.136520 2.407828 4.733508 -53.903296 -0.000001 -0.000001 -0.000002 7.314742 8.035621 -105.794979 3.608004 5.405422 -67.422894 0.736246 2.845194 -29.010897 -0.000000 0.000001 0.000001 10.390423 6.780219 -113.877121 1.192867 3.544568 -37.189892 0.438855 2.226577 -22.297255 -0.000007 0.000001 0.000001 -8.616517 31.369406 23.230773 0.000000 0.000000 0.000000 5.446719 29.578971 48.139989 -0.000017 48.198432 0.000016 -21.028401 -46.822094 -0.047403 17.912414 17.120609 -32.483536 12.694453 -52.014216 20.210858 2.934341 3.697805 -26.040890 0.000001 0.000003 0.000004 0.276363 -8.899010 1.740188 5.888280 -4.491832 105.344214 2.534376 -4.146186 62.857159 -0.000002 -0.000000 -0.000000 4.166155 -8.600785 42.153206 7.050159 -3.996513 120.947132 0.504902 -2.110857 26.901270 0.000002 -0.000000 0.000000 -0.361102 -4.549273 57.044241 4.703204 -4.656949 90.567099 2.413051 -4.081879 61.165990 -0.000000 0.000000 -0.000000 -5.324603 -0.292072 51.887315 3.524517 -4.517635 75.909261 1.722700 -3.617955 50.911919 -0.000000 0.000000 -0.000000 -25.802546 -9.693055 1.501816 18.062350 4.237188 -8.132039 7.125787 -17.819501 4.903186 0.069803 -2.860488 -0.863360 0.000000 -0.000001 -0.000000 9.661851 -12.733079 0.037101 25.032954 2.269589 -4.059397 -12.854036 -31.431554 4.742445 -8.210139 -0.423072 7.259152 -0.000001 -0.000000 -0.000001 
